<?xml version="1.0" encoding="UTF-8"?>
<svg xmlns="http://www.w3.org/2000/svg" width="272" height="72" viewBox="0 0 272 72" fill="none">
  <path d="M264.245 25.7966C264.245 25.2909 264.345 24.7852 264.546 24.3806C264.747 23.9761 265.048 23.5715 265.35 23.1669C265.651 22.8635 266.053 22.5601 266.555 22.3578C267.057 22.1555 267.458 22.0544 267.961 22.0544C268.463 22.0544 268.965 22.1555 269.366 22.3578C269.768 22.5601 270.17 22.8635 270.571 23.1669C270.973 23.4703 271.174 23.8749 271.375 24.3806C271.576 24.7852 271.676 25.2909 271.676 25.7966C271.676 26.3023 271.576 26.808 271.375 27.2126C271.174 27.6172 270.873 28.0217 270.571 28.3252C270.27 28.6286 269.868 28.932 269.366 29.1343C268.965 29.3366 268.463 29.4377 267.961 29.4377C267.458 29.4377 266.956 29.3366 266.555 29.1343C266.153 28.932 265.751 28.7297 265.35 28.3252C265.048 28.0217 264.747 27.6172 264.546 27.2126C264.345 26.7069 264.245 26.3023 264.245 25.7966ZM264.747 25.7966C264.747 26.2012 264.847 26.6057 264.948 27.0103C265.048 27.4149 265.35 27.7183 265.651 28.0217C265.952 28.3251 266.253 28.5274 266.655 28.7297C267.057 28.932 267.458 28.932 267.86 28.932C268.262 28.932 268.663 28.8309 269.065 28.7297C269.467 28.6286 269.768 28.3251 270.069 28.0217C270.371 27.7183 270.571 27.4149 270.772 27.0103C270.973 26.6057 270.973 26.2012 270.973 25.7966C270.973 25.392 270.873 24.9875 270.772 24.5829C270.672 24.1783 270.371 23.8749 270.069 23.5715C269.768 23.2681 269.467 23.0658 269.065 22.8635C268.663 22.6612 268.262 22.6612 267.86 22.6612C267.458 22.6612 267.057 22.7624 266.655 22.8635C266.253 23.0658 265.952 23.2681 265.651 23.5715C265.35 23.8749 265.149 24.1783 264.948 24.5829C264.747 24.9875 264.747 25.2909 264.747 25.7966ZM268.764 27.8194L267.86 26.2012H267.258V27.8194H266.253V23.6726H268.061C268.262 23.6726 268.463 23.6726 268.663 23.7738C268.864 23.7738 268.965 23.8749 269.166 23.9761C269.266 24.0772 269.467 24.1783 269.567 24.3806C269.668 24.5829 269.668 24.7852 269.668 24.9875C269.668 25.2909 269.567 25.4932 269.467 25.6955C269.366 25.8977 269.065 25.9989 268.864 26.1L269.969 27.8194H268.764ZM268.061 25.4932C268.161 25.4932 268.362 25.4932 268.463 25.392C268.563 25.2909 268.663 25.1898 268.663 24.9875C268.663 24.7852 268.563 24.684 268.463 24.5829C268.362 24.4818 268.161 24.4818 268.061 24.4818H267.258V25.4932H268.061Z" fill="#2A2E30"></path>
  <path d="M118.935 27.8195L115.22 29.1343C112.709 26.4035 109.194 25.0886 104.675 25.0886C101.261 25.0886 98.4493 25.9989 96.3404 27.7183C94.2316 29.4377 93.1269 31.764 93.1269 34.4948C93.1269 37.3268 94.2316 39.5519 96.3404 41.3724C98.4493 43.0919 101.361 44.0021 104.977 44.0021C109.395 44.0021 112.81 42.6873 115.32 39.8553L118.835 41.777C117.027 43.901 115.019 45.4181 112.81 46.3284C110.6 47.2387 107.889 47.7444 104.776 47.7444C100.357 47.7444 96.7421 46.6318 93.8299 44.4067C90.516 41.8782 88.9092 38.5405 88.9092 34.4948C88.9092 30.4491 90.6164 27.2126 93.9303 24.6841C96.8425 22.4589 100.458 21.3464 104.776 21.3464C110.902 21.3464 115.621 23.4704 118.935 27.8195Z" fill="#2A2E30"></path>
  <path d="M177.782 22.1555C180.293 22.1555 182.301 22.8635 183.807 24.2795C185.314 25.6955 186.017 27.6172 186.017 29.9435C186.017 32.472 185.213 34.2925 183.707 35.6074C182.201 36.9222 179.891 37.5291 176.979 37.5291H162.217V47.0364H158.1V22.1555H177.782ZM177.079 33.7868C180.293 33.7868 181.799 32.472 181.799 29.9435C181.799 27.2126 180.092 25.7966 176.778 25.7966H162.217V33.7868H177.079Z" fill="#2A2E30"></path>
  <path d="M218.754 47.0364H213.934L207.206 37.5291H194.753V47.0364H190.636V22.1555H210.118C212.729 22.1555 214.737 22.8635 216.243 24.2795C217.75 25.6955 218.453 27.6172 218.453 30.0446C218.453 32.1686 217.85 33.888 216.645 35.1017C215.541 36.3154 214.034 37.0234 212.026 37.3268L218.754 47.0364ZM209.616 33.7868C212.829 33.7868 214.335 32.472 214.335 29.9435C214.335 27.2126 212.628 25.7966 209.214 25.7966H194.753V33.7868H209.616Z" fill="#2A2E30"></path>
  <path d="M229.298 47.0364H225.181V22.1555H229.298V47.0364Z" fill="#2A2E30"></path>
  <path d="M140.425 22.1555H135.304L122.149 47.0364H126.668L137.915 25.6955L149.062 47.0364H153.48L140.425 22.1555Z" fill="#2A2E30"></path>
  <path d="M137.915 43.6987C139.412 43.6987 140.626 42.4761 140.626 40.9679C140.626 39.4597 139.412 38.2371 137.915 38.2371C136.417 38.2371 135.203 39.4597 135.203 40.9679C135.203 42.4761 136.417 43.6987 137.915 43.6987Z" fill="#00498C"></path>
  <path d="M252.194 22.1555H247.073L233.918 47.0364H238.437L249.684 25.6955L260.831 47.0364H265.249L252.194 22.1555Z" fill="#2A2E30"></path>
  <path d="M249.684 43.6987C251.181 43.6987 252.395 42.4761 252.395 40.9679C252.395 39.4597 251.181 38.2371 249.684 38.2371C248.186 38.2371 246.973 39.4597 246.973 40.9679C246.973 42.4761 248.186 43.6987 249.684 43.6987Z" fill="#00498C"></path>
  <path d="M73.6452 45.2158C71.938 46.025 70.3313 46.733 68.6241 47.441C68.5237 47.441 68.5237 47.5421 68.4233 47.5421C49.1424 55.7346 32.6733 57.8585 19.5181 57.3528C13.3924 57.1506 8.27089 55.7346 4.85657 53.3072C10.8818 64.1293 22.3299 71.4115 35.3847 71.4115C48.6403 71.4115 60.1887 63.9271 66.1136 53.0037C56.674 56.8471 47.0335 58.5665 47.0335 58.5665C56.7744 55.1277 63.5026 51.6889 67.8208 49.1604C67.9212 49.1604 67.9212 49.0592 68.0216 49.0592C69.2267 48.3512 70.2309 47.6432 71.0342 47.1375C72.8418 45.9238 73.6452 45.2158 73.6452 45.2158Z" fill="url(#paint0_linear_178_2894)"></path>
  <path d="M70.03 30.8537C67.5194 13.8619 52.9584 0.915741 35.485 0.915741C16.1037 0.915741 0.437988 16.6939 0.437988 36.2142C0.437988 37.8325 0.53841 39.3496 0.739252 40.8667C2.64726 35.3039 8.37127 28.8309 19.1164 21.7509C11.6852 29.64 7.36706 40.4622 13.1915 45.2158C13.794 45.7215 14.497 46.1261 15.4008 46.4295C17.0075 47.0364 19.0159 47.4409 21.5265 47.6432C23.7357 47.7444 26.3467 47.6432 29.1585 47.3398C30.0623 47.2387 30.9661 47.1375 31.8699 47.0364C34.1796 46.7329 36.6901 46.2272 39.301 45.5192C40.2048 45.317 41.1086 45.0135 42.0124 44.8113C44.4225 44.1033 46.9331 43.3953 49.4436 42.485C56.2723 40.0576 63.4022 36.8211 70.4317 32.5731C74.4485 30.1457 78.4654 27.4149 82.2814 24.4818C78.0637 26.808 74.0468 28.932 70.03 30.8537ZM21.426 44.1033V16.4916H29.0581V44.3055C25.6437 44.7101 23.0328 44.609 21.426 44.1033ZM31.7694 43.901V11.1311H39.2006V42.3839C36.4893 42.9907 33.9787 43.5976 31.7694 43.901ZM41.8116 41.6759V5.77054H49.2428V39.3496C46.7322 40.2599 44.2217 40.9679 41.8116 41.6759Z" fill="url(#paint1_linear_178_2894)"></path>
  <defs>
    <linearGradient id="paint0_linear_178_2894" x1="39.2546" y1="54.3839" x2="39.2546" y2="71.7082" gradientUnits="userSpaceOnUse">
      <stop stop-color="#A3A8AB"></stop>
      <stop offset="1" stop-color="#616769"></stop>
    </linearGradient>
    <linearGradient id="paint1_linear_178_2894" x1="41.2901" y1="1.33143" x2="41.2901" y2="47.2412" gradientUnits="userSpaceOnUse">
      <stop stop-color="#00498C"></stop>
      <stop offset="1" stop-color="#000A3D"></stop>
    </linearGradient>
  </defs>
</svg>
