<svg width="185" height="45" viewBox="0 0 185 45" fill="none" xmlns="http://www.w3.org/2000/svg">
<g clip-path="url(#clip0)">
<path d="M22.6728 0H22.1346V5.26689H21.6846V12.3758H23.1181V5.26689H22.6681V0H22.6728Z" fill="#FDFBF9"/>
<path d="M21.6895 39.7332H22.1395V45.0001H22.6776V39.7332H23.1277V32.6243H21.6941V39.7332H21.6895Z" fill="#FDFBF9"/>
<path d="M5.24252 23.2196H12.3222V21.7803H5.24252V22.2292H0V22.7707H5.24252V23.2196Z" fill="#FDFBF9"/>
<path d="M9.77031 10.8439L14.7437 15.8378L15.7737 14.801L10.8003 9.81184L10.4848 10.1266L6.76398 6.3916L6.36035 6.79888L10.0812 10.5338L9.77031 10.8439Z" fill="#FDFBF9"/>
<path d="M35.0412 34.1559L30.026 29.1621L28.9961 30.1988L34.0159 35.1927L34.3314 34.8779L38.0522 38.6129L38.4558 38.2056L34.735 34.4707L35.0412 34.1559Z" fill="#FDFBF9"/>
<path d="M34.011 9.81184L28.9912 14.8057L30.0212 15.8424L35.041 10.8486L34.7255 10.5338L38.4463 6.79888L38.0427 6.3916L34.3219 10.1266L34.011 9.81184Z" fill="#FDFBF9"/>
<path d="M10.8005 35.1883L15.7739 30.1944L14.744 29.1577L9.77055 34.1562L10.086 34.4709L6.36523 38.2058L6.76886 38.6131L10.4897 34.8782L10.8005 35.1883Z" fill="#FDFBF9"/>
<path d="M19.3142 5.5817L18.2843 0.361084L17.7461 0.495302L18.776 5.66963L18.326 5.75757L19.7178 12.6906L21.1514 12.4222L19.7642 5.48913L19.3142 5.5817Z" fill="#FDFBF9"/>
<path d="M26.4401 39.2426L25.0947 32.3142L23.6611 32.5826L25.0066 39.5111L25.4566 39.4231L26.4865 44.6437L27.0247 44.5095L26.0411 39.3352L26.4401 39.2426Z" fill="#FDFBF9"/>
<path d="M5.73449 26.5937L12.6379 25.2006L12.3688 23.7612L5.42365 25.1543L5.51179 25.5616L0.357422 26.5937L0.491964 27.1768L5.64634 26.1401L5.73449 26.5937Z" fill="#FDFBF9"/>
<path d="M7.75236 13.5466L13.6212 17.5084L14.4285 16.2449L8.55961 12.3294L8.29053 12.6904L3.94341 9.76538L3.62793 10.2143L7.97505 13.1856L7.75236 13.5466Z" fill="#FDFBF9"/>
<path d="M37.0599 31.4532L31.191 27.4915L30.3838 28.7503L36.2526 32.6658L36.4753 32.3048L40.8688 35.2298L41.1843 34.7809L36.7908 31.8142L37.0599 31.4532Z" fill="#FDFBF9"/>
<path d="M28.5881 14.4908L32.5316 8.59452L32.1743 8.32608L35.0879 3.96169L34.5961 3.64697L31.6826 8.01136L31.3253 7.78458L27.3818 13.6809L28.5881 14.4908Z" fill="#FDFBF9"/>
<path d="M16.178 30.509L12.2809 36.4054L12.6382 36.6738L9.72461 41.0382L10.17 41.3529L13.0835 36.9885L13.4872 37.2153L17.3843 31.319L16.178 30.509Z" fill="#FDFBF9"/>
<path d="M15.1472 6.88677L17.8798 13.4125L19.2252 12.871L16.4926 6.29898L16.089 6.47948L14.0709 1.61987L13.5791 1.80037L15.5972 6.70627L15.1472 6.88677Z" fill="#FDFBF9"/>
<path d="M29.6222 38.1132L26.9314 31.5874L25.5859 32.1289L28.2768 38.701L28.6804 38.5205L30.6986 43.3801L31.2367 43.1996L29.2186 38.2937L29.6222 38.1132Z" fill="#FDFBF9"/>
<path d="M37.9546 15.2546L31.4131 17.9529L31.9977 19.3043L38.4974 16.6061L38.3629 16.1571L43.2018 14.13L42.9791 13.6348L38.1356 15.6619L37.9546 15.2546Z" fill="#FDFBF9"/>
<path d="M6.85727 29.7455L13.3571 27.0472L12.8189 25.6958L6.27735 28.394L6.45828 28.843L1.56836 30.8701L1.79105 31.3653L6.67633 29.3382L6.85727 29.7455Z" fill="#FDFBF9"/>
<path d="M6.27271 16.6061L12.8143 19.3043L13.3524 17.9529L6.85263 15.2546L6.6717 15.6619L1.79105 13.6348L1.56836 14.13L6.45364 16.1571L6.27271 16.6061Z" fill="#FDFBF9"/>
<path d="M38.4935 28.394L31.9937 25.6958L31.4092 27.0472L37.9507 29.7455L38.1317 29.3382L42.9706 31.3653L43.1933 30.8701L38.3544 28.843L38.4935 28.394Z" fill="#FDFBF9"/>
<path d="M26.9321 13.4079L29.6229 6.88214L29.2193 6.70164L31.2375 1.79574L30.6946 1.61987L28.6765 6.47948L28.2729 6.29899L25.582 12.871L26.9321 13.4079Z" fill="#FDFBF9"/>
<path d="M17.8798 31.592L15.1472 38.1178L15.5972 38.2983L13.5791 43.2042L14.0709 43.3847L16.089 38.5251L16.4926 38.7056L19.2252 32.1335L17.8798 31.592Z" fill="#FDFBF9"/>
<path d="M12.2802 8.59452L16.1773 14.4908L17.3882 13.6809L13.4911 7.78458L13.0874 8.01136L10.1739 3.64697L9.72852 3.96169L12.6421 8.32608L12.2802 8.59452Z" fill="#FDFBF9"/>
<path d="M32.5313 36.4054L28.5878 30.509L27.377 31.319L31.3204 37.2153L31.6777 36.9885L34.5912 41.3529L35.083 41.0382L32.1695 36.6738L32.5313 36.4054Z" fill="#FDFBF9"/>
<path d="M36.2526 12.3296L30.3838 16.2451L31.191 17.504L37.0599 13.5422L36.7908 13.1812L41.1843 10.2099L40.8688 9.76099L36.4753 12.686L36.2526 12.3296Z" fill="#FDFBF9"/>
<path d="M8.55961 32.6704L14.4285 28.755L13.6212 27.4961L7.75236 31.4578L7.97505 31.8188L3.62793 34.7901L3.94341 35.2391L8.29053 32.3141L8.55961 32.6704Z" fill="#FDFBF9"/>
<path d="M5.42365 19.8458L12.3688 21.2388L12.6379 19.7995L5.73449 18.4064L5.64634 18.8553L0.491964 17.8186L0.357422 18.4018L5.51179 19.4385L5.42365 19.8458Z" fill="#FDFBF9"/>
<path d="M26.4399 5.7622L26.0363 5.67427L27.0198 0.49994L26.4816 0.365723L25.4517 5.58633L25.0017 5.4984L23.6562 12.4268L25.0898 12.6952L26.4399 5.7622Z" fill="#FDFBF9"/>
<path d="M18.3299 39.2426L18.7799 39.3306L17.75 44.5049L18.2882 44.6391L19.3181 39.4185L19.7681 39.5064L21.1507 32.5826L19.7171 32.3142L18.3299 39.2426Z" fill="#FDFBF9"/>
<path d="M102.308 8.6827V7.37754L108.539 5.80396V34.11C108.539 36.2251 109.615 37.123 111.318 37.123V38.4281H102.267V37.123C104.104 37.123 105.087 36.2251 105.087 34.11V13.0934C105.083 9.08998 103.83 8.59476 102.308 8.6827Z" fill="#FDFBF9"/>
<path d="M132.868 37.0352L133.318 31.5878H134.617C135.244 35.6374 138.203 36.8963 141.205 36.8963C143.896 36.8963 145.371 35.3644 145.371 33.3418C145.371 27.987 132.915 30.0558 132.915 22.7201C132.915 19.2536 135.601 16.4211 140.041 16.4211C143.4 16.4211 145.464 17.1431 147.255 18.1336L146.805 22.9932H145.506C144.791 19.9339 142.504 18.7167 139.813 18.7167C137.257 18.7167 136.051 20.1098 136.051 21.8223C136.051 26.5476 148.554 24.7473 148.554 32.2635C148.554 37.0768 144.791 39.1919 140.621 39.1919C137.619 39.2382 134.436 38.3403 132.868 37.0352Z" fill="#FDFBF9"/>
<path d="M161.234 35.4614L161.906 36.5397C161.28 37.5302 159.397 38.9695 156.752 38.9695C153.569 38.9695 151.867 36.9007 151.867 33.7952V19.9337H149.403V18.6286L151.867 17.4114L154.02 11.1541H155.319V17.6798H161.906V19.9291H155.277V32.2124C155.277 34.3274 155.499 35.901 157.606 36.5768C159.531 37.2617 161.234 35.4614 161.234 35.4614Z" fill="#FDFBF9"/>
<path d="M181.624 33.5268V16.8745H180.325L178.441 19.1238C177.189 17.9112 174.901 16.333 171.719 16.333C166.161 16.333 161.726 20.429 161.726 27.5379C161.726 34.6931 165.985 38.1133 170.958 38.1133C174.317 38.1133 176.873 36.4935 178.26 34.1516V37.8403H184.398V36.5351C182.385 36.5397 181.624 35.6419 181.624 33.5268ZM178.265 29.5188C177.773 32.8927 175.486 35.3688 172.081 35.3688C167.645 35.3688 165.446 31.9948 165.446 27.4037C165.446 22.4515 167.91 18.8554 171.988 18.8554C174.498 18.8554 176.604 19.619 178.26 21.7804V29.5188H178.265Z" fill="#FDFBF9"/>
<path d="M70.3568 36.9015C71.4331 36.9015 73.224 36.721 74.3467 36.4063C75.4648 36.0916 76.4066 35.5501 77.1721 34.9207C77.8448 34.3375 78.383 33.6155 78.8283 32.7176C79.2784 31.8198 79.6356 30.871 79.9047 29.7926L81.2037 29.7463L79.9047 36.8553C78.8747 37.3505 77.4829 37.7994 75.6921 38.2946C73.9431 38.7436 71.7486 39.0166 69.2387 39.0166C67.3134 39.0166 65.4762 38.7019 63.5926 38.0725C61.7554 37.443 60.0991 36.4989 58.7073 35.1474C57.2737 33.8423 56.151 32.1345 55.302 30.0611C54.4483 27.946 54.0029 25.4699 54.0029 22.5449C54.0029 20.1613 54.4066 17.9537 55.2138 15.9312C56.0211 13.904 57.1392 12.1499 58.531 10.6643C59.9182 9.17861 61.6208 8.00768 63.5926 7.15609C65.5643 6.29987 67.7587 5.89722 70.0924 5.89722C72.6904 5.89722 74.755 6.16565 76.2303 6.66087C77.7103 7.15609 78.8747 7.65131 79.5892 8.01231L80.4429 15.1212L79.1438 15.1675C79.0093 14.3113 78.7866 13.5014 78.4247 12.6498C78.0675 11.8398 77.6639 11.1178 77.1257 10.5347C76.3648 9.67846 75.423 9.04902 74.3003 8.60009C73.1822 8.15115 71.5677 7.92437 70.0877 7.92437C68.2505 7.92437 66.5943 8.28537 65.1143 9.04902C63.5926 9.81267 62.3353 10.8494 61.2589 12.1545C60.1826 13.4597 59.3754 14.9916 58.7954 16.792C58.2109 18.5461 57.9 20.4807 57.9 22.5078C57.9 24.6692 58.2155 26.6501 58.7954 28.4042C59.38 30.1582 60.229 31.6902 61.3517 32.9491C62.4281 34.2079 63.7271 35.1521 65.2488 35.8278C66.8587 36.5405 68.5196 36.9015 70.3568 36.9015Z" fill="#FDFBF9"/>
<path d="M131.165 32.9854C129.463 36.5861 126.549 39.0159 121.664 39.0159C114.941 39.0159 111.086 34.4247 111.086 27.8573C111.086 21.4241 115.656 16.6987 121.617 16.6987C127.175 16.6987 130.803 20.2532 131.026 25.969L129.727 27.3621H114.361C114.765 31.7728 117.989 36.0909 122.875 36.0909C128.474 36.0909 129.954 32.268 129.954 32.268L131.165 32.9854ZM114.45 25.1082H127.041C126.994 22.0952 124.754 18.9434 120.676 18.9434C117.948 18.9897 114.941 20.9706 114.45 25.1082Z" fill="#FDFBF9"/>
<path d="M102.443 32.9854C100.74 36.5861 97.8264 39.0159 92.9411 39.0159C86.2186 39.0159 82.3633 34.4247 82.3633 27.8573C82.3633 21.4241 86.9331 16.6987 92.8947 16.6987C98.4527 16.6987 102.081 20.2532 102.303 25.969L101.004 27.4084H85.6805C86.0841 31.8191 89.3085 36.1372 94.1937 36.1372C99.7935 36.1372 101.273 32.3143 101.273 32.3143L102.443 32.9854ZM85.7268 25.1082H98.3646C98.3182 22.0952 96.0773 18.9434 91.9993 18.9434C89.2203 18.9897 86.2186 20.9706 85.7268 25.1082Z" fill="#FDFBF9"/>
</g>
<defs>
<clipPath id="clip0">
<rect width="184.402" height="45" fill="white"/>
</clipPath>
</defs>
</svg>
