<svg xmlns="http://www.w3.org/2000/svg" fill="none" viewBox="0 0 141.714 31.519"><defs/><g fill="#000" clip-path="url(#clip0)" transform="translate(0 -8.24)"><path d="M102.358 15.705v1.726c.046 0 .093 0 .093-.046.785-1.073 1.848-1.68 3.096-2.006 1.34-.373 2.634-.28 3.928.186.97.327 1.71.98 2.264 1.82.046.093.139.186.231.373a1.01 1.01 0 01.139-.233c.924-1.213 2.125-2.006 3.604-2.24 1.479-.28 2.958-.14 4.298.56 1.71.84 2.68 2.24 2.957 4.152.093.467.093.98.093 1.446v10.823h-4.852v-9.423c0-.373-.047-.7-.093-1.073-.231-1.026-.878-1.726-1.941-1.913-.97-.14-1.894 0-2.587.84a2.981 2.981 0 00-.694 1.96v9.562h-4.944v-9.423c0-.466-.047-.933-.185-1.353-.416-1.073-1.155-1.54-2.126-1.633-.37-.046-.785 0-1.155.094-1.017.326-1.571 1.073-1.802 2.099-.047.233-.047.513-.047.793v9.423h-4.99V15.705zm34.52 1.539v-1.54h4.806V30.82a10.4 10.4 0 01-1.386 5.224c-.971 1.68-2.357 2.753-4.16 3.266-2.125.606-4.297.606-6.423-.047-1.664-.513-3.004-1.54-4.02-2.985-.416-.607-.74-1.307-.878-2.006 0-.094-.047-.14-.047-.234 0-.046 0-.14-.046-.233 1.479-.42 2.912-.84 4.39-1.26a.858.858 0 01.093.327c.416 1.353 1.617 2.426 3.281 2.473.601 0 1.201-.047 1.756-.234 1.248-.466 1.987-1.446 2.31-2.705.185-.793.231-1.633.185-2.473l-.046-.046h-.046c-.693.886-1.618 1.352-2.727 1.539-1.432.233-2.865.233-4.205-.327-2.403-.933-3.974-2.659-4.667-5.084-.647-2.24-.509-4.432.6-6.485.925-1.773 2.311-3.125 4.252-3.779a7.98 7.98 0 014.436-.14c1.017.234 1.849.794 2.542 1.633zm-7.117 6.205v.513c.139 1.353.832 2.38 2.08 2.892.508.233 1.109.28 1.663.233 1.572-.093 2.681-1.026 3.05-2.332.185-.56.231-1.166.185-1.773-.185-2.239-2.264-3.778-4.621-3.032-1.479.513-2.357 1.82-2.357 3.499zm-32.209-10.03V8.24h44.086c.092.233.092 4.478.046 5.131-.277.094-43.347.14-44.132.047zM90.25 39.636v-5.178h32.81v5.178zm5.13-7.417h-5.176V15.844h-5.083V12.3h.416c1.479-.093 2.773-.513 3.928-1.493.74-.606 1.201-1.4 1.432-2.332 0-.047.047-.14.047-.187h4.436V32.22zm-55.223 1.633h-7.209c-.323 0-.462-.093-.554-.373-1.248-3.639-2.496-7.23-3.697-10.87a8.073 8.073 0 00-.185-.512c-.139.42-.277.7-.37 1.026-1.155 3.405-2.31 6.857-3.466 10.263-.092.326-.23.42-.554.42h-7.163c.231-.56.416-1.12.6-1.68a4386.65 4386.65 0 006.609-17.587c.139-.326.277-.466.647-.466h7.301c.324 0 .462.093.601.42a3176.549 3176.549 0 007.302 18.94c.092.14.092.28.138.42zm38.448 0H71.35c-.323 0-.462-.093-.554-.373-1.248-3.639-2.496-7.23-3.697-10.87-.047-.14-.093-.28-.185-.512-.093.233-.139.42-.185.56-1.201 3.591-2.45 7.137-3.65 10.729-.093.326-.232.466-.601.466h-7.071c.046-.186.093-.326.139-.466 2.357-6.298 4.76-12.596 7.116-18.893.14-.327.278-.42.647-.42h7.348c.277 0 .416.093.555.373 2.449 6.344 4.898 12.735 7.347 19.08 0 .093 0 .186.046.326zM57.35 14.165v5.785h-5.407v13.948h-7.856V19.997h-5.592v-5.785c6.239-.046 12.524-.046 18.854-.046zm-57.35 0h18.9v5.784h-5.406v13.948H5.592v-13.9H0v-5.831z"/></g><defs id="defs11"><clipPath id="clip0"><path id="path8" fill="#fff" d="M0 0h141.714v48H0z"/></clipPath></defs></svg>